<?xml version="1.0" encoding="UTF-8"?>
<svg version="1.1" xmlns="http://www.w3.org/2000/svg" width="194" height="175">
<path d="M0 0 C8.6588094 -0.06989728 17.31751979 -0.123011 25.97655106 -0.15543652 C29.99846706 -0.17100899 34.02018825 -0.19209068 38.04199219 -0.22631836 C41.93237946 -0.25921567 45.82258085 -0.27691609 49.71309662 -0.28463173 C51.18806631 -0.29012133 52.66302729 -0.30083899 54.13791656 -0.31719017 C68.09418428 -0.4655839 81.02848204 0.93723493 91.8125 10.62890625 C93.39843559 12.33775184 94.70920589 14.0597751 96 16 C96.4125 16.60972656 96.825 17.21945313 97.25 17.84765625 C101.57849105 25.64795784 101.17509044 36.15836334 99.45703125 44.69921875 C96.14338243 54.31063108 87.96077994 59.07099607 79.28125 63.3359375 C77.20093351 64.26417998 75.11670839 65.15854308 73 66 C74.15173355 68.46800047 75.04783565 70.04783565 77 72 C79.06080144 72.29166082 79.06080144 72.29166082 81.44970703 72.22705078 C82.83091232 72.22682419 82.83091232 72.22682419 84.24002075 72.22659302 C85.73382767 72.21110916 85.73382767 72.21110916 87.2578125 72.1953125 C88.78509476 72.19106766 88.78509476 72.19106766 90.3432312 72.18673706 C93.603939 72.1755177 96.86437484 72.15040996 100.125 72.125 C102.33202729 72.11497247 104.53905888 72.10584623 106.74609375 72.09765625 C112.16415572 72.07557268 117.58205843 72.04207795 123 72 C123.00831079 64.00212306 122.98442712 56.00525983 122.9197216 48.00767231 C122.89067936 44.29376321 122.87262545 40.58048471 122.87988281 36.86645508 C122.88648256 33.28035925 122.86395803 29.69550875 122.82144547 26.10967064 C122.81032515 24.74342471 122.80960469 23.3770523 122.81957626 22.0107975 C123.13644366 14.70610699 123.13644366 14.70610699 120.7119751 8.06723022 C117.88476808 5.63162774 114.53030858 4.14215866 111 3 C111 2.01 111 1.02 111 0 C125.19 0 139.38 0 154 0 C153 4 153 4 151.1875 5.44921875 C150.465625 5.85785156 149.74375 6.26648438 149 6.6875 C146.3371182 8.12939422 146.3371182 8.12939422 144 10 C143.90052759 11.8984385 143.87200357 13.80061793 143.87060547 15.70166016 C143.86751373 16.93288101 143.864422 18.16410187 143.86123657 19.43263245 C143.86304827 20.8014427 143.86503733 22.17025273 143.8671875 23.5390625 C143.8660032 24.95779959 143.86448089 26.37653644 143.86264038 27.79527283 C143.85886407 32.40520096 143.86649258 37.01508081 143.875 41.625 C143.87726815 43.19749955 143.87950612 44.76999914 143.88171387 46.34249878 C143.89772748 56.51039079 143.93549005 66.67810151 143.98884583 76.84586334 C143.99950783 78.90495048 144.00929485 80.96404013 144.0189209 83.02313232 C144.05354467 89.86816322 144.10996735 96.71217016 144.20953369 103.55657959 C144.23641378 105.55328738 144.25676614 107.55009419 144.27044678 109.54693604 C144.29132965 112.28328649 144.33716979 115.01802574 144.390625 117.75390625 C144.39248306 118.93653297 144.39248306 118.93653297 144.39437866 120.14305115 C144.48896097 123.60081487 144.69525545 125.60431053 146.83496094 128.38256836 C148.59274742 129.69575459 150.41356747 130.92425566 152.25 132.125 C153.61125 133.053125 153.61125 133.053125 155 134 C155 134.66 155 135.32 155 136 C151.08600663 137.30466446 147.36027995 137.1427824 143.28125 137.1328125 C141.99982117 137.13424759 141.99982117 137.13424759 140.69250488 137.13571167 C138.88696214 137.13639193 137.08141694 137.13454835 135.27587891 137.13037109 C132.51068636 137.12502068 129.74565624 137.13032127 126.98046875 137.13671875 C125.22656214 137.13605794 123.47265563 137.13477672 121.71875 137.1328125 C120.89056763 137.13483673 120.06238525 137.13686096 119.20910645 137.13894653 C115.88712618 137.12536316 113.17346575 137.05782192 110 136 C111 133 111 133 112.99609375 131.9375 C113.80175781 131.628125 114.60742188 131.31875 115.4375 131 C118.97530152 129.63712301 119.80724219 129.28913671 122 126 C122.3254969 123.96334774 122.3254969 123.96334774 122.31884766 121.7121582 C122.33871735 120.85149246 122.35858704 119.99082672 122.37905884 119.1040802 C122.39061005 118.17899155 122.40216125 117.25390289 122.4140625 116.30078125 C122.43342865 115.35059616 122.4527948 114.40041107 122.4727478 113.4214325 C122.53254912 110.3852131 122.57893129 107.34895581 122.625 104.3125 C122.66317926 102.25454072 122.70223096 100.19659742 122.7421875 98.13867188 C122.83989414 93.09253089 122.91945849 88.04656115 123 83 C109.8 83 96.6 83 83 83 C92.20262523 112.58929103 92.20262523 112.58929103 106.5546875 139.87109375 C108 142 108 142 108.9453125 144.16015625 C110.30761801 146.53662252 111.48508112 146.97259086 114 148 C114.81855469 148.37898437 115.63710937 148.75796875 116.48046875 149.1484375 C122.30976525 151.78970605 128.14645421 154.41287729 134 157 C134 157.66 134 158.32 134 159 C123.67365989 162.44211337 110.89810645 158.95085665 101.1875 154.796875 C93.85993964 150.8855421 88.53942649 146.00735629 84 139.125 C83.60039063 138.5578125 83.20078125 137.990625 82.7890625 137.40625 C74.97904073 125.71609002 71.2049557 111.09553058 66.89819336 97.82861328 C62.05835035 82.24983601 62.05835035 82.24983601 53 69 C49.22770182 68.24554036 45.59217539 67.95264755 41.7578125 67.9765625 C40.51773438 67.98429687 39.27765625 67.99203125 38 68 C37.89922907 80.83821589 37.87210818 93.66931834 38.375 106.5 C38.40585693 107.41080322 38.43671387 108.32160645 38.46850586 109.26000977 C38.59573002 120.30091593 38.59573002 120.30091593 43.5625 129.4375 C47.62896401 131.28589273 51.71665434 132.74355194 56 134 C56 134.99 56 135.98 56 137 C48.64934015 137.02531484 41.2986915 137.04285202 33.94799805 137.05493164 C31.44636617 137.05996641 28.94473724 137.06679461 26.44311523 137.07543945 C22.85139234 137.08754238 19.25970828 137.09323682 15.66796875 137.09765625 C14.54601608 137.10281754 13.42406342 137.10797882 12.26811218 137.11329651 C10.70683342 137.11340981 10.70683342 137.11340981 9.11401367 137.11352539 C8.19690109 137.115746 7.27978851 137.11796661 6.33488464 137.12025452 C4 137 4 137 1 136 C1.33 135.01 1.66 134.02 2 133 C4.3984375 131.9375 4.3984375 131.9375 7.375 131 C12.3131066 129.44384911 12.3131066 129.44384911 16 126 C16.44923536 123.92228336 16.44923536 123.92228336 16.38095093 121.5929718 C16.3894104 120.69168045 16.39786987 119.7903891 16.40658569 118.86178589 C16.400513 117.87526031 16.39444031 116.88873474 16.38818359 115.87231445 C16.39344055 114.83134109 16.39869751 113.79036774 16.40411377 112.71784973 C16.41734891 109.26617554 16.40855982 105.8149604 16.3984375 102.36328125 C16.40045798 99.96534639 16.40336921 97.56741213 16.40713501 95.16947937 C16.41156377 90.13644579 16.40511227 85.10357171 16.39111328 80.07055664 C16.37406729 73.62889729 16.38383023 67.18761419 16.40183067 60.74596882 C16.41269283 55.78990365 16.40921017 50.83392701 16.4014473 45.87785912 C16.39944963 43.50367373 16.4018893 41.12948025 16.40888596 38.75530434 C16.41653503 35.42820736 16.40484511 32.10171069 16.38818359 28.7746582 C16.39425629 27.79825378 16.40032898 26.82184937 16.40658569 25.81585693 C16.3516005 19.86596815 15.56361172 15.40089726 13 10 C9.07731126 6.70137537 4.71629696 4.88651879 0 3 C0 2.01 0 1.02 0 0 Z M37 7 C37 24.49 37 41.98 37 60 C56.64829984 60.88407639 56.64829984 60.88407639 74 53 C78.93683545 47.92973656 81.15206061 42.66600104 81.4375 35.6875 C81.12046101 26.41727994 77.41490791 19.92273855 71.5859375 12.91015625 C61.89959815 5.75514123 47.99841283 7.49992786 37 7 Z " fill="#1B2D35" transform="translate(17,9)"/>
<path d="M0 0 C22.44 0 44.88 0 68 0 C68 0.33 68 0.66 68 1 C61.39327545 1.99861056 54.95626603 2.13039257 48.28125 2.09765625 C47.18276733 2.0962413 46.08428467 2.09482635 44.95251465 2.09336853 C41.46831457 2.08780257 37.98418042 2.07525639 34.5 2.0625 C32.1276051 2.0574806 29.75520918 2.05291846 27.3828125 2.04882812 C21.58851944 2.0378443 15.79426443 2.0211403 10 2 C10.33 2.99 10.66 3.98 11 5 C8.83032311 5.95465783 7.43671207 6.14401212 5.17578125 5.3984375 C3.4315257 4.64129615 1.71372869 3.82390802 0 3 C0 2.01 0 1.02 0 0 Z " fill="#192124" transform="translate(17,9)"/>
<path d="M0 0 C0.33 0 0.66 0 1 0 C1.01030746 0.74787277 1.02061493 1.49574554 1.03123474 2.26628113 C1.12987167 9.37019422 1.23246981 16.47403706 1.33933926 23.57783031 C1.39412553 27.22853685 1.44746605 30.87925173 1.49731445 34.5300293 C1.54562223 38.06384901 1.59797313 41.59758925 1.65294075 45.13131142 C1.68275525 47.11225678 1.70855457 49.09326129 1.73423767 51.07426453 C1.86303232 59.083432 2.2866811 67.02149112 3 75 C2.67 75 2.34 75 2 75 C1.67 86.55 1.34 98.1 1 110 C0.67 110 0.34 110 0 110 C0 73.7 0 37.4 0 0 Z " fill="#07212A" transform="translate(158,20)"/>
<path d="M0 0 C14.19 0 28.38 0 43 0 C42.67 1.32 42.34 2.64 42 4 C41.23429687 3.75660889 41.23429687 3.75660889 40.453125 3.50830078 C37.187644 2.83167544 34.0849138 2.87009392 30.75 2.8671875 C29.70730957 2.86575241 29.70730957 2.86575241 28.64355469 2.86428833 C27.17773345 2.86360956 25.71190917 2.8654427 24.24609375 2.86962891 C22.00774355 2.87498148 19.76959399 2.86967371 17.53125 2.86328125 C16.10416623 2.86394209 14.67708258 2.86522336 13.25 2.8671875 C11.95578125 2.86831543 10.6615625 2.86944336 9.328125 2.87060547 C6.63731324 2.97522183 4.56717108 3.3409628 2 4 C1.34 3.67 0.68 3.34 0 3 C0 2.01 0 1.02 0 0 Z " fill="#171E22" transform="translate(128,9)"/>
<path d="M0 0 C0.99 0 1.98 0 3 0 C3.66 2.31 4.32 4.62 5 7 C4.34 7.66 3.68 8.32 3 9 C2.01 6.03 1.02 3.06 0 0 Z " fill="#41494E" transform="translate(77,87)"/>
<path d="M0 0 C1.65 0 3.3 0 5 0 C4.67 1.32 4.34 2.64 4 4 C2.35 3.67 0.7 3.34 -1 3 C-0.67 2.01 -0.34 1.02 0 0 Z " fill="#202D3E" transform="translate(128,142)"/>
<path d="M0 0 C1.32 0 2.64 0 4 0 C4.33 0.99 4.66 1.98 5 3 C3.1875 3.625 3.1875 3.625 1 4 C0.01 3.34 -0.98 2.68 -2 2 C-1.34 2 -0.68 2 0 2 C0 1.34 0 0.68 0 0 Z " fill="#2F3A41" transform="translate(23,11)"/>
</svg>
